<?xml version="1.0" encoding="utf-8"?>
<!-- Generator: Adobe Illustrator 27.0.0, SVG Export Plug-In . SVG Version: 6.00 Build 0)  -->
<svg version="1.1" id="Layer_1" xmlns="http://www.w3.org/2000/svg" xmlns:xlink="http://www.w3.org/1999/xlink" x="0px" y="0px"
	 viewBox="0 0 100 100" style="enable-background:new 0 0 100 100;" xml:space="preserve">
<style type="text/css">
	.st0{fill:#180818;}
	.st1{fill:none;stroke:#180818;stroke-width:0.9715;stroke-miterlimit:10;}
	.st2{fill:#ED6055;}
	.st3{fill:#640D81;}
	.st4{fill:none;stroke:#640D81;stroke-width:0.9715;stroke-miterlimit:10;}
</style>
<g>
	<rect x="45.84" y="15.3" class="st0" width="8.33" height="12.49"/>
	<rect x="47.92" y="27.79" class="st0" width="4.16" height="4.16"/>
	<path class="st1" d="M81.23,77.4v15.54c0,3.11-2.52,5.63-5.63,5.63H24.4c-3.11,0-5.63-2.52-5.63-5.63l0-15.54
		c-0.39-0.16-0.77-0.38-1.1-0.65l-14.5-11.5c-1.1-0.87-1.74-2.2-1.74-3.61V5.88c0-2.46,1.55-4.46,3.47-4.46H95.1
		c1.92,0,3.47,2,3.47,4.46v55.77c0,1.41-0.64,2.74-1.74,3.61l-14.5,11.5c-0.27,0.22-0.68,0.4-1.11,0.55L81.23,77.4z"/>
	<path class="st1" d="M30.17,15.3h39.65c2.46,0,4.46,2,4.46,4.46v39.65c0,2.46-2,4.46-4.46,4.46H30.17c-2.46,0-4.46-2-4.46-4.46
		V19.76C25.71,17.3,27.71,15.3,30.17,15.3z"/>
	<path class="st2" d="M80.85,25.12h11.16c0.41,0,0.74,0.4,0.74,0.88v8.34c0,0.49-0.33,0.88-0.74,0.88H80.85
		c-0.41,0-0.74-0.4-0.74-0.88V26C80.12,25.51,80.44,25.12,80.85,25.12z"/>
	<path class="st2" d="M6.21,39.59h14.71c0.54,0,0.97,0.43,0.97,0.97v9.16c0,0.54-0.43,0.97-0.97,0.97H6.21
		c-0.54,0-0.97-0.43-0.97-0.97v-9.16C5.24,40.02,5.68,39.59,6.21,39.59z"/>
	<rect x="49.3" y="31.95" class="st2" width="1.39" height="5.55"/>
	<path class="st3" d="M20.92,23.07H15.1c-0.54,0-0.97-0.43-0.97-0.97v-5.83c0-0.54,0.43-0.97,0.97-0.97h5.83
		c0.54,0,0.97,0.43,0.97,0.97v5.83C21.9,22.64,21.46,23.07,20.92,23.07z"/>
	<line class="st4" x1="18.01" y1="23.07" x2="18.01" y2="39.59"/>
	<path class="st4" d="M86.43,18.77V9.33c0-0.54-0.43-0.97-0.97-0.97H18.98c-0.54,0-0.97,0.43-0.97,0.97v5.97"/>
	<g>
		<g>
			<path class="st0" d="M4.07,29.81v-2.85h0.62v2.86c0,1.16,0.49,1.53,1.13,1.53c0.64,0,1.15-0.37,1.15-1.53v-2.86h0.59v2.85
				c0,1.56-0.75,2.09-1.74,2.09S4.07,31.36,4.07,29.81z"/>
			<path class="st0" d="M8.49,31.18l0.37-0.42c0.35,0.36,0.83,0.6,1.34,0.6c0.64,0,1.01-0.32,1.01-0.79c0-0.5-0.35-0.65-0.81-0.85
				l-0.7-0.31c-0.45-0.19-0.98-0.54-0.98-1.25c0-0.74,0.65-1.29,1.53-1.29c0.57,0,1.09,0.25,1.43,0.6l-0.33,0.4
				c-0.3-0.28-0.65-0.45-1.1-0.45c-0.54,0-0.9,0.27-0.9,0.71c0,0.47,0.42,0.64,0.8,0.8l0.69,0.3c0.56,0.24,1,0.58,1,1.3
				c0,0.77-0.63,1.38-1.65,1.38C9.51,31.9,8.92,31.62,8.49,31.18z"/>
			<path class="st0" d="M12.78,26.96h1.44c0.99,0,1.67,0.33,1.67,1.19c0,0.48-0.25,0.91-0.71,1.05v0.03
				c0.58,0.11,0.99,0.5,0.99,1.16c0,0.95-0.75,1.42-1.83,1.42h-1.55V26.96z M14.12,29.02c0.82,0,1.17-0.3,1.17-0.8
				c0-0.57-0.39-0.78-1.14-0.78H13.4v1.57H14.12z M14.25,31.32c0.83,0,1.32-0.3,1.32-0.95c0-0.6-0.47-0.87-1.32-0.87H13.4v1.82
				H14.25z"/>
		</g>
	</g>
	<g>
		<g>
			<path class="st0" d="M43.43,2.39h1.21c1.49,0,2.29,0.87,2.29,2.41s-0.8,2.44-2.26,2.44h-1.24V2.39z M44.6,6.73
				c1.13,0,1.7-0.71,1.7-1.94c0-1.23-0.57-1.9-1.7-1.9h-0.55v3.84H44.6z"/>
			<path class="st0" d="M47.69,6.31c0-0.78,0.67-1.17,2.21-1.34c0-0.46-0.15-0.91-0.74-0.91c-0.42,0-0.79,0.2-1.07,0.38l-0.24-0.42
				c0.33-0.22,0.83-0.47,1.41-0.47c0.88,0,1.25,0.58,1.25,1.48v2.2H50l-0.05-0.43h-0.02c-0.34,0.28-0.74,0.52-1.19,0.52
				C48.14,7.33,47.69,6.96,47.69,6.31z M49.89,6.36v-1c-1.2,0.15-1.61,0.44-1.61,0.9c0,0.41,0.28,0.57,0.63,0.57
				C49.26,6.84,49.54,6.67,49.89,6.36z"/>
			<path class="st0" d="M51.73,6.13V4.14H51.2V3.68l0.56-0.03l0.07-1.01h0.51v1.01h0.97v0.49h-0.97v2c0,0.44,0.14,0.69,0.56,0.69
				c0.13,0,0.29-0.05,0.41-0.1l0.12,0.46c-0.2,0.07-0.44,0.13-0.67,0.13C51.99,7.33,51.73,6.84,51.73,6.13z"/>
			<path class="st0" d="M53.9,6.31c0-0.78,0.67-1.17,2.2-1.34c0-0.46-0.15-0.91-0.74-0.91c-0.42,0-0.79,0.2-1.07,0.38l-0.24-0.42
				c0.33-0.22,0.83-0.47,1.41-0.47c0.88,0,1.25,0.58,1.25,1.48v2.2h-0.5l-0.05-0.43h-0.02C55.8,7.1,55.4,7.33,54.95,7.33
				C54.35,7.33,53.9,6.96,53.9,6.31z M56.1,6.36v-1c-1.2,0.15-1.61,0.44-1.61,0.9c0,0.41,0.28,0.57,0.63,0.57
				C55.47,6.84,55.76,6.67,56.1,6.36z"/>
		</g>
	</g>
	<path class="st1" d="M81.02,18.77h10.81c2.38,0,4.31,1.93,4.31,4.31V56.1c0,2.38-1.93,4.31-4.31,4.31H81.02
		c-2.38,0-4.31-1.93-4.31-4.31V23.08C76.72,20.7,78.64,18.77,81.02,18.77z"/>
</g>
</svg>
