<?xml version="1.0" encoding="utf-8"?>
<!-- Generator: Adobe Illustrator 27.0.0, SVG Export Plug-In . SVG Version: 6.00 Build 0)  -->
<svg version="1.1" id="Layer_1" xmlns="http://www.w3.org/2000/svg" xmlns:xlink="http://www.w3.org/1999/xlink" x="0px" y="0px"
	 viewBox="0 0 150 40" style="enable-background:new 0 0 150 40;" xml:space="preserve">
<style type="text/css">
	.st0{fill:none;stroke:#ED6055;stroke-width:1.5;stroke-miterlimit:10;}
	.st1{fill:#993293;}
	.st2{fill:#640D81;}
	.st3{fill:none;}
	.st4{fill:#993293;stroke:#640D81;stroke-width:2;stroke-miterlimit:10;}
</style>
<path class="st0" d="M67.5,20H56.63c-1.1,0-2,0.9-2,2v11.89c0,1.1-0.9,2-2,2H34.76c-1.1,0-2-0.9-2-2v-2.11"/>
<path class="st0" d="M82.5,19.99h42.49c0.53,0,1.04,0.21,1.41,0.59l6.17,6.17c0.78,0.78,2.05,0.78,2.83,0l0.46-0.46l2.59-2.59"/>
<polyline class="st1" points="26.13,31.78 26.13,40 17.26,40 17.26,31.78 "/>
<g>
	<path class="st2" d="M67.5,15.18v11.79c0,0.3,0.24,0.54,0.54,0.54h13.93c0.3,0,0.54-0.24,0.54-0.54V13.04
		c0-0.3-0.24-0.54-0.54-0.54H70.18C68.7,12.5,67.5,13.7,67.5,15.18z"/>
	<circle class="st1" cx="80.64" cy="26.31" r="1.07"/>
	<circle class="st1" cx="73.55" cy="14.72" r="0.47"/>
	<circle class="st1" cx="71.9" cy="24.81" r="0.43"/>
	<circle class="st1" cx="69.6" cy="15.47" r="0.4"/>
	<circle class="st1" cx="80.77" cy="21.37" r="0.67"/>
	<circle class="st1" cx="77.33" cy="18.67" r="1.07"/>
	<circle class="st1" cx="79.24" cy="13.73" r="0.54"/>
	<circle class="st1" cx="75.27" cy="20" r="0.47"/>
	<circle class="st1" cx="73.14" cy="22.11" r="0.54"/>
	<circle class="st1" cx="77.45" cy="24.58" r="0.5"/>
	<path class="st1" d="M75.66,23.14l0.26,0.45c0.04,0.08,0.02,0.18-0.06,0.22l-0.45,0.26c-0.08,0.04-0.18,0.02-0.22-0.06l-0.26-0.45
		c-0.04-0.08-0.02-0.18,0.06-0.22l0.45-0.26C75.51,23.04,75.61,23.06,75.66,23.14z"/>
	<path class="st1" d="M79.87,18.97l-0.09,0.63c-0.01,0.09-0.09,0.15-0.18,0.14l-0.63-0.09c-0.09-0.01-0.15-0.09-0.14-0.18l0.09-0.63
		c0.01-0.09,0.09-0.15,0.18-0.14l0.63,0.09C79.82,18.81,79.88,18.89,79.87,18.97z"/>
	<path class="st1" d="M77.83,21.12l0.61,0.61c0.06,0.06,0.06,0.16,0,0.23l-0.61,0.61c-0.06,0.06-0.16,0.06-0.23,0L77,21.95
		c-0.06-0.06-0.06-0.16,0-0.23l0.61-0.61C77.67,21.05,77.77,21.05,77.83,21.12z"/>
	<path class="st1" d="M81.44,16.74v1.02c0,0.09-0.07,0.16-0.16,0.16h-1.02c-0.09,0-0.16-0.07-0.16-0.16v-1.02
		c0-0.09,0.07-0.16,0.16-0.16h1.02C81.37,16.58,81.44,16.65,81.44,16.74z"/>
	<path class="st1" d="M78.62,26.3v0.48c0,0.09-0.07,0.16-0.16,0.16h-0.48c-0.09,0-0.16-0.07-0.16-0.16V26.3
		c0-0.09,0.07-0.16,0.16-0.16h0.48C78.55,26.14,78.62,26.21,78.62,26.3z"/>
	<path class="st1" d="M71.84,17.24l0.48-0.08c0.09-0.01,0.17,0.04,0.19,0.13l0.08,0.48c0.01,0.09-0.04,0.17-0.13,0.19l-0.48,0.08
		c-0.09,0.01-0.17-0.04-0.19-0.13l-0.08-0.48C71.7,17.34,71.76,17.26,71.84,17.24z"/>
	<path class="st1" d="M70.03,25.34l-0.07,0.48c-0.01,0.09-0.09,0.15-0.18,0.14l-0.48-0.07c-0.09-0.01-0.15-0.09-0.14-0.18l0.07-0.48
		c0.01-0.09,0.09-0.15,0.18-0.14l0.48,0.07C69.98,25.17,70.04,25.25,70.03,25.34z"/>
	<path class="st1" d="M79.04,15.18l0.26,0.98c0.02,0.09-0.03,0.17-0.11,0.2l-0.98,0.26c-0.09,0.02-0.17-0.03-0.2-0.11l-0.26-0.98
		c-0.02-0.09,0.03-0.17,0.11-0.2l0.98-0.26C78.93,15.04,79.02,15.09,79.04,15.18z"/>
	<path class="st1" d="M76.36,14.72l0.99-0.27c0.12-0.03,0.16-0.18,0.07-0.27l-0.72-0.72c-0.09-0.09-0.24-0.05-0.27,0.07l-0.27,0.99
		C76.14,14.64,76.24,14.75,76.36,14.72z"/>
	<path class="st1" d="M75.3,25.6l-1.04,0.12c-0.12,0.01-0.18,0.16-0.11,0.26l0.62,0.84c0.07,0.1,0.23,0.08,0.28-0.03l0.42-0.96
		C75.51,25.72,75.42,25.59,75.3,25.6z"/>
	<path class="st1" d="M81.11,14.65l0.75-0.2c0.12-0.03,0.16-0.18,0.07-0.27l-0.55-0.55c-0.09-0.09-0.24-0.05-0.27,0.07l-0.2,0.75
		C80.88,14.57,80.99,14.68,81.11,14.65z"/>
	<path class="st1" d="M80.43,23.21l-0.75,0.2c-0.12,0.03-0.16,0.18-0.07,0.27l0.55,0.55c0.09,0.09,0.24,0.05,0.27-0.07l0.2-0.75
		C80.66,23.29,80.55,23.18,80.43,23.21z"/>
	<path class="st1" d="M68.25,19.82l0.12,0.45c0.03,0.12,0.18,0.16,0.27,0.07l0.33-0.33c0.09-0.09,0.05-0.24-0.07-0.27l-0.45-0.12
		C68.33,19.59,68.22,19.7,68.25,19.82z"/>
	<path class="st1" d="M75.25,16.92l0.42,0.2c0.11,0.05,0.24-0.04,0.23-0.16l-0.04-0.46c-0.01-0.12-0.15-0.19-0.25-0.12l-0.38,0.27
		C75.13,16.71,75.14,16.86,75.25,16.92z"/>
	<path class="st2" d="M77.6,19.44c-0.13-0.06-0.25-0.11-0.38-0.17c-0.06-0.03-0.12-0.05-0.18-0.08c-0.06-0.03-0.12-0.05-0.17-0.09
		c-0.02,0.04-0.03,0.08-0.05,0.11c0.17,0.02,0.34,0.01,0.51-0.03c0.04-0.01,0.07-0.08,0.03-0.11c-0.08-0.06-0.18-0.09-0.27-0.14
		c-0.05-0.02-0.09-0.05-0.13-0.08c-0.03-0.02-0.08-0.05-0.1-0.09c-0.03,0.03-0.05,0.05-0.08,0.08c0.13,0.04,0.27,0.06,0.4,0.03
		c0.06-0.01,0.12-0.03,0.15-0.09c0.02-0.06-0.01-0.13-0.07-0.14c-0.08-0.02-0.12,0.11-0.04,0.13c-0.01-0.01-0.01-0.02-0.02-0.03
		c0,0,0-0.01,0.01-0.01c0,0-0.01,0-0.01,0c-0.02,0-0.03,0.01-0.05,0.01c-0.04,0.01-0.08,0.01-0.12,0.01c-0.08,0-0.15-0.01-0.22-0.04
		c-0.04-0.02-0.1,0.04-0.08,0.08c0.04,0.1,0.15,0.16,0.24,0.22c0.05,0.03,0.1,0.05,0.15,0.08c0.05,0.02,0.1,0.04,0.14,0.07
		c0.01-0.04,0.02-0.07,0.03-0.11c-0.15,0.04-0.31,0.05-0.47,0.03c-0.06-0.01-0.09,0.08-0.05,0.11c0.05,0.04,0.11,0.07,0.17,0.09
		c0.07,0.03,0.13,0.06,0.2,0.09c0.13,0.06,0.26,0.12,0.4,0.17c0.03,0.01,0.07,0.01,0.09-0.02C77.64,19.51,77.64,19.46,77.6,19.44
		L77.6,19.44z"/>
	<path class="st2" d="M76.72,18.58c-0.05-0.04-0.1-0.08-0.13-0.14c-0.03-0.06-0.03-0.11-0.01-0.18c-0.04,0.01-0.07,0.02-0.11,0.03
		c0.15,0.18,0.38,0.25,0.6,0.31c0.07,0.02,0.11-0.06,0.07-0.11c-0.05-0.06-0.11-0.11-0.15-0.18c-0.04-0.07-0.03-0.16-0.02-0.25
		c0-0.04-0.03-0.07-0.07-0.07c-0.04,0-0.06,0.03-0.07,0.07c-0.01,0.1-0.01,0.21,0.04,0.31c0.04,0.08,0.11,0.15,0.17,0.21
		c0.02-0.04,0.04-0.07,0.07-0.11c-0.2-0.06-0.41-0.12-0.54-0.28c-0.03-0.04-0.1-0.02-0.11,0.03c-0.02,0.09-0.03,0.18,0.02,0.26
		c0.04,0.07,0.1,0.13,0.16,0.18c0.03,0.02,0.07,0.03,0.09,0C76.75,18.65,76.75,18.6,76.72,18.58L76.72,18.58z"/>
	<path class="st2" d="M77.52,19.18c0.14-0.03,0.27-0.05,0.4-0.08c0.12-0.03,0.26-0.05,0.37-0.11c0.03-0.02,0.04-0.06,0.02-0.09
		c-0.05-0.08-0.17-0.09-0.25-0.12c-0.1-0.03-0.19-0.06-0.27-0.11c-0.01,0.04-0.02,0.08-0.03,0.12c0.1,0,0.19,0,0.29-0.01
		c0.04,0,0.08-0.04,0.06-0.08c-0.02-0.07-0.1-0.1-0.16-0.14c-0.07-0.04-0.14-0.08-0.21-0.12c-0.14-0.08-0.28-0.16-0.42-0.23
		c-0.08-0.04-0.14,0.07-0.07,0.12c0.13,0.07,0.25,0.14,0.37,0.21c0.06,0.03,0.12,0.07,0.18,0.1c0.03,0.02,0.06,0.04,0.1,0.06
		c0.02,0.01,0.03,0.02,0.05,0.03c0.01,0,0.03,0.02,0.03,0.02c0.02-0.03,0.04-0.06,0.06-0.08c-0.1,0.01-0.19,0.01-0.29,0.01
		c-0.07,0-0.09,0.09-0.03,0.12c0.07,0.05,0.16,0.08,0.24,0.11c0.04,0.01,0.09,0.03,0.13,0.04c0.02,0.01,0.09,0.02,0.11,0.04
		c0.01-0.03,0.02-0.06,0.02-0.09c-0.05,0.03-0.11,0.04-0.16,0.05c-0.06,0.02-0.13,0.03-0.19,0.05c-0.13,0.03-0.26,0.06-0.39,0.08
		C77.4,19.07,77.43,19.2,77.52,19.18L77.52,19.18z"/>
</g>
<g>
	<path d="M53.77,15.19v-2.31h0.5v2.32c0,0.95,0.4,1.24,0.91,1.24c0.52,0,0.93-0.3,0.93-1.24v-2.32h0.48v2.31
		c0,1.26-0.61,1.7-1.41,1.7C54.38,16.89,53.77,16.45,53.77,15.19z"/>
	<path d="M57.31,16.3l0.3-0.34c0.28,0.29,0.68,0.49,1.09,0.49c0.52,0,0.82-0.26,0.82-0.64c0-0.4-0.29-0.53-0.66-0.69l-0.57-0.25
		c-0.37-0.16-0.8-0.43-0.8-1.01c0-0.6,0.52-1.04,1.24-1.04c0.47,0,0.88,0.2,1.16,0.49l-0.27,0.32c-0.24-0.23-0.53-0.37-0.89-0.37
		c-0.44,0-0.73,0.22-0.73,0.57c0,0.38,0.34,0.52,0.65,0.65l0.56,0.24c0.46,0.2,0.81,0.47,0.81,1.05c0,0.62-0.51,1.12-1.34,1.12
		C58.13,16.89,57.65,16.66,57.31,16.3z"/>
	<path d="M60.8,12.88h1.17c0.8,0,1.35,0.27,1.35,0.96c0,0.39-0.21,0.73-0.58,0.85v0.02c0.47,0.09,0.8,0.4,0.8,0.94
		c0,0.77-0.61,1.15-1.49,1.15H60.8V12.88z M61.88,14.55c0.67,0,0.95-0.25,0.95-0.65c0-0.46-0.31-0.63-0.92-0.63H61.3v1.28H61.88z
		 M61.98,16.42c0.67,0,1.07-0.24,1.07-0.77c0-0.48-0.38-0.71-1.07-0.71H61.3v1.48H61.98z"/>
</g>
<g>
	<path d="M110.71,12.81h1.23c0.8,0,1.38,0.29,1.38,1.11c0,0.79-0.58,1.16-1.38,1.16h-0.73v1.66h-0.5V12.81z M111.87,14.68
		c0.61,0,0.95-0.25,0.95-0.76c0-0.52-0.34-0.7-0.95-0.7h-0.66v1.46H111.87z M111.85,14.95l0.39-0.26l1.2,2.06h-0.57L111.85,14.95z"
		/>
	<path d="M113.76,16.24l0.3-0.34c0.28,0.29,0.68,0.49,1.09,0.49c0.52,0,0.82-0.26,0.82-0.64c0-0.4-0.29-0.53-0.66-0.69l-0.57-0.25
		c-0.37-0.16-0.8-0.43-0.8-1.01c0-0.6,0.52-1.04,1.24-1.04c0.47,0,0.88,0.2,1.16,0.49l-0.27,0.32c-0.24-0.23-0.53-0.37-0.89-0.37
		c-0.44,0-0.73,0.22-0.73,0.57c0,0.38,0.34,0.52,0.65,0.65l0.56,0.24c0.46,0.2,0.81,0.47,0.81,1.05c0,0.62-0.51,1.12-1.34,1.12
		C114.58,16.82,114.1,16.59,113.76,16.24z"/>
	<path d="M116.95,16.46c1.15-1.15,1.8-1.83,1.8-2.46c0-0.44-0.24-0.75-0.73-0.75c-0.32,0-0.6,0.2-0.81,0.46l-0.29-0.28
		c0.32-0.35,0.66-0.58,1.16-0.58c0.71,0,1.15,0.45,1.15,1.13c0,0.72-0.66,1.43-1.56,2.38c0.21-0.02,0.44-0.03,0.64-0.03h1.11v0.42
		h-2.47V16.46z"/>
	<path d="M119.85,16.28l0.25-0.32c0.23,0.24,0.53,0.45,0.98,0.45c0.46,0,0.79-0.27,0.79-0.7c0-0.45-0.31-0.76-1.22-0.76v-0.38
		c0.81,0,1.09-0.31,1.09-0.71c0-0.37-0.26-0.61-0.66-0.61c-0.32,0-0.59,0.16-0.82,0.39l-0.27-0.31c0.3-0.27,0.65-0.48,1.1-0.48
		c0.67,0,1.14,0.35,1.14,0.97c0,0.46-0.28,0.75-0.7,0.91v0.02c0.46,0.11,0.83,0.45,0.83,0.97c0,0.68-0.56,1.09-1.26,1.09
		C120.49,16.82,120.11,16.56,119.85,16.28z"/>
	<path d="M122.91,16.46c1.15-1.15,1.8-1.83,1.8-2.46c0-0.44-0.24-0.75-0.73-0.75c-0.32,0-0.59,0.2-0.81,0.46l-0.29-0.28
		c0.32-0.35,0.67-0.58,1.16-0.58c0.71,0,1.15,0.45,1.15,1.13c0,0.72-0.66,1.43-1.56,2.38c0.21-0.02,0.45-0.03,0.64-0.03h1.11v0.42
		h-2.47V16.46z"/>
</g>
<path class="st2" d="M133.98,20.25v3.63c0,0.27,0.11,0.52,0.29,0.71l3.27,3.27c0.19,0.19,0.44,0.29,0.71,0.29H145V12.34h-6.75
	c-0.27,0-0.52,0.11-0.71,0.29l-3.27,3.27c-0.19,0.19-0.29,0.44-0.29,0.71V20.25"/>
<line class="st3" x1="113.18" y1="28.15" x2="109.32" y2="24.29"/>
<path class="st4" d="M3.64,31.48h36.12c1.1,0,2-0.9,2-2V10.52c0-1.1-0.9-2-2-2H3.64c-1.1,0-2,0.9-2,2v18.96
	C1.64,30.58,2.53,31.48,3.64,31.48z"/>
</svg>
