<?xml version="1.0" encoding="utf-8"?>
<!-- Generator: Adobe Illustrator 27.0.0, SVG Export Plug-In . SVG Version: 6.00 Build 0)  -->
<svg version="1.1" id="Layer_1" xmlns="http://www.w3.org/2000/svg" xmlns:xlink="http://www.w3.org/1999/xlink" x="0px" y="0px"
	 viewBox="0 0 100 100" style="enable-background:new 0 0 100 100;" xml:space="preserve">
<style type="text/css">
	.st0{fill:#FFFFFF;}
	.st1{fill:#FFFFFF;stroke:#640D81;stroke-miterlimit:10;}
	.st2{fill:#180818;}
	.st3{fill:#640D81;}
	.st4{fill:none;stroke:#180818;stroke-width:4.5;stroke-miterlimit:10;}
</style>
<path class="st0" d="M96,100H4c-2.21,0-4-1.79-4-4V4c0-2.21,1.79-4,4-4h92c2.21,0,4,1.79,4,4v92C100,98.21,98.21,100,96,100z"/>
<rect x="35.64" y="19.37" class="st1" width="15.21" height="20.5"/>
<rect x="73.19" y="19.37" class="st1" width="15.13" height="25.41"/>
<rect x="12.5" y="19.37" class="st1" width="11.5" height="10.25"/>
<rect x="41" y="53.26" class="st2" width="4.5" height="25.15"/>
<rect x="16" y="51.37" class="st2" width="4.5" height="27.04"/>
<path class="st3" d="M49.15,54.8h-11.8c-2.21,0-4-1.79-4-4V36.04h19.8V50.8C53.15,53.01,51.36,54.8,49.15,54.8z"/>
<rect x="38.14" y="26.14" class="st2" width="3.13" height="3.13"/>
<rect x="45.23" y="26.14" class="st2" width="3.13" height="3.13"/>
<rect x="76.96" y="56.82" class="st2" width="7.68" height="43.18"/>
<path class="st3" d="M72.69,42.17h16.13V54.3c0,2.21-1.79,4-4,4h-8.13c-2.21,0-4-1.79-4-4V42.17z"/>
<rect x="75.56" y="21.84" class="st2" width="0.75" height="4.02"/>
<rect x="76.94" y="21.84" class="st2" width="0.75" height="4.02"/>
<rect x="78.31" y="21.84" class="st2" width="0.75" height="4.02"/>
<rect x="79.69" y="21.84" class="st2" width="0.75" height="4.02"/>
<rect x="81.06" y="21.84" class="st2" width="0.75" height="4.02"/>
<rect x="82.44" y="21.84" class="st2" width="0.75" height="4.02"/>
<rect x="83.81" y="21.84" class="st2" width="0.75" height="4.02"/>
<rect x="85.19" y="21.84" class="st2" width="0.75" height="4.02"/>
<path class="st3" d="M22.25,51.37h-8c-2.21,0-4-1.79-4-4v-19h16v19C26.25,49.58,24.46,51.37,22.25,51.37z"/>
<path class="st4" d="M43.25,78.41c0,6.9-5.6,12.5-12.5,12.5s-12.5-5.6-12.5-12.5"/>
</svg>
