<?xml version="1.0" encoding="utf-8"?>
<!-- Generator: Adobe Illustrator 27.0.0, SVG Export Plug-In . SVG Version: 6.00 Build 0)  -->
<svg version="1.1" id="Layer_1" xmlns="http://www.w3.org/2000/svg" xmlns:xlink="http://www.w3.org/1999/xlink" x="0px" y="0px"
	 viewBox="0 0 595.28 841.89" style="enable-background:new 0 0 595.28 841.89;" xml:space="preserve">
<style type="text/css">
	.st0{fill:none;stroke:#000000;stroke-width:3.1894;}
	.st1{fill:none;stroke:#000000;stroke-width:3.1894;}
	.st2{fill:none;}
</style>
<path id="path3286" class="st0" d="M127.02,391.58c0-5.49,4.45-9.94,9.94-9.94H457.5c5.49,0,9.94,4.45,9.94,9.94v59.09
	c0,5.49-4.45,9.94-9.94,9.94H136.96c-5.49,0-9.94-4.45-9.94-9.94V391.58z"/>
<path id="path3288" class="st1" d="M411.57,448.8c9.3,0,15.58-7.49,13.96-16.64l-3.9-22.05c-1.62-9.15-10.55-16.65-19.84-16.65
	H192.67c-9.29,0-18.22,7.49-19.84,16.65l-3.9,22.05c-1.62,9.15,4.66,16.64,13.96,16.64H411.57L411.57,448.8z"/>
<g id="g3290">
	<path id="path3292" class="st1" d="M448.87,429.5c-4.63,0-8.37-3.75-8.37-8.37c0-4.62,3.75-8.37,8.37-8.37
		c4.63,0,8.37,3.75,8.37,8.37C457.25,425.75,453.5,429.5,448.87,429.5z"/>
	<path id="path3294" class="st1" d="M145.59,429.5c-4.62,0-8.37-3.75-8.37-8.37c0-4.62,3.75-8.37,8.37-8.37
		c4.62,0,8.37,3.75,8.37,8.37C153.96,425.75,150.21,429.5,145.59,429.5z"/>
</g>
<g id="g3296">
	<circle id="circle3298" class="st1" cx="406.84" cy="430.35" r="3.71"/>
	<circle id="circle3300" class="st1" cx="388.57" cy="430.35" r="3.71"/>
	<path id="path3302" class="st1" d="M370.3,434.06c-2.05,0-3.71-1.66-3.71-3.71c0-2.05,1.66-3.71,3.71-3.71
		c2.05,0,3.71,1.66,3.71,3.71C374.01,432.41,372.35,434.06,370.3,434.06z"/>
	<circle id="circle3304" class="st1" cx="352.03" cy="430.35" r="3.71"/>
	<path id="path3306" class="st1" d="M397.71,415.61c-2.05,0-3.71-1.66-3.71-3.71c0-2.05,1.66-3.71,3.71-3.71
		c2.05,0,3.71,1.66,3.71,3.71C401.42,413.95,399.76,415.61,397.71,415.61z"/>
	<path id="path3308" class="st1" d="M379.44,415.61c-2.05,0-3.71-1.66-3.71-3.71c0-2.05,1.66-3.71,3.71-3.71
		c2.05,0,3.71,1.66,3.71,3.71C383.15,413.95,381.49,415.61,379.44,415.61z"/>
	<path id="path3310" class="st1" d="M361.17,415.61c-2.05,0-3.71-1.66-3.71-3.71c0-2.05,1.66-3.71,3.71-3.71
		c2.05,0,3.71,1.66,3.71,3.71C364.88,413.95,363.22,415.61,361.17,415.61z"/>
	<path id="path3312" class="st1" d="M342.89,415.61c-2.05,0-3.71-1.66-3.71-3.71c0-2.05,1.66-3.71,3.71-3.71
		c2.05,0,3.71,1.66,3.71,3.71C346.61,413.95,344.95,415.61,342.89,415.61z"/>
	<path id="path3314" class="st1" d="M278.96,434.07c2.05,0,3.71-1.66,3.71-3.71c0-2.05-1.66-3.71-3.71-3.71
		c-2.05,0-3.71,1.66-3.71,3.71C275.25,432.41,276.91,434.07,278.96,434.07z"/>
	<path id="path3316" class="st1" d="M297.23,434.06c2.05,0,3.71-1.66,3.71-3.71c0-2.05-1.66-3.71-3.71-3.71
		c-2.05,0-3.71,1.66-3.71,3.71C293.52,432.41,295.18,434.06,297.23,434.06z"/>
	<circle id="circle3318" class="st1" cx="315.5" cy="430.36" r="3.71"/>
	<path id="path3320" class="st1" d="M333.77,434.07c2.05,0,3.71-1.66,3.71-3.71c0-2.05-1.66-3.71-3.71-3.71
		c-2.05,0-3.71,1.66-3.71,3.71C330.05,432.41,331.72,434.07,333.77,434.07z"/>
	<path id="path3322" class="st1" d="M288.09,415.61c2.05,0,3.71-1.66,3.71-3.71c0-2.05-1.66-3.71-3.71-3.71
		c-2.05,0-3.71,1.66-3.71,3.71C284.38,413.95,286.05,415.61,288.09,415.61z"/>
	<circle id="circle3324" class="st1" cx="306.36" cy="411.9" r="3.71"/>
	<path id="path3326" class="st1" d="M324.63,415.61c2.05,0,3.71-1.66,3.71-3.71c0-2.05-1.66-3.71-3.71-3.71
		c-2.05,0-3.71,1.66-3.71,3.71C320.92,413.95,322.58,415.61,324.63,415.61z"/>
	<path id="path3328" class="st1" d="M187.61,434.07c2.05,0,3.72-1.66,3.72-3.71c0-2.05-1.66-3.71-3.72-3.71
		c-2.04,0-3.71,1.66-3.71,3.71C183.9,432.41,185.57,434.07,187.61,434.07z"/>
	<path id="path3330" class="st1" d="M196.75,415.61c2.05,0,3.71-1.66,3.71-3.71c0-2.05-1.66-3.71-3.71-3.71
		c-2.05,0-3.71,1.66-3.71,3.71C193.04,413.95,194.7,415.61,196.75,415.61z"/>
	<path id="path3332" class="st1" d="M260.69,434.07c-2.05,0-3.71-1.66-3.71-3.71c0-2.05,1.66-3.71,3.71-3.71
		c2.05,0,3.72,1.66,3.72,3.71C264.4,432.41,262.74,434.07,260.69,434.07z"/>
	<path id="path3334" class="st1" d="M242.42,434.07c-2.05,0-3.72-1.66-3.72-3.71c0-2.05,1.66-3.71,3.72-3.71
		c2.04,0,3.71,1.66,3.71,3.71C246.13,432.41,244.47,434.07,242.42,434.07z"/>
	<path id="path3336" class="st1" d="M224.15,434.07c-2.05,0-3.71-1.66-3.71-3.71c0-2.05,1.66-3.71,3.71-3.71
		c2.04,0,3.71,1.66,3.71,3.71C227.86,432.41,226.2,434.07,224.15,434.07z"/>
	<circle id="circle3338" class="st1" cx="205.88" cy="430.36" r="3.71"/>
	<path id="path3340" class="st1" d="M269.82,415.62c-2.05,0-3.71-1.66-3.71-3.71c0-2.05,1.66-3.71,3.71-3.71
		c2.05,0,3.71,1.66,3.71,3.71C273.54,413.95,271.87,415.62,269.82,415.62z"/>
	<path id="path3342" class="st1" d="M251.55,415.62c-2.05,0-3.71-1.66-3.71-3.71c0-2.05,1.66-3.71,3.71-3.71
		c2.05,0,3.71,1.66,3.71,3.71C255.26,413.95,253.61,415.62,251.55,415.62z"/>
	<path id="path3344" class="st1" d="M233.29,415.62c-2.05,0-3.71-1.66-3.71-3.71c0-2.05,1.66-3.71,3.71-3.71s3.71,1.66,3.71,3.71
		C237,413.95,235.34,415.62,233.29,415.62z"/>
	<path id="path3346" class="st1" d="M215.01,415.62c-2.05,0-3.71-1.66-3.71-3.71c0-2.05,1.66-3.71,3.71-3.71s3.71,1.66,3.71,3.71
		C218.72,413.95,217.06,415.62,215.01,415.62z"/>
</g>
<path class="st2" d="M126.73,466.86h47.19v47.19h-47.19V466.86z"/>
<path d="M145.58,474.72l-12.95,12.95c-1.54,1.54-1.54,4.02,0,5.56l12.95,12.95c1.12,1.13,2.82,1.46,4.29,0.85l0.29-0.13
	c1.31-0.67,2.14-2.02,2.14-3.5v-5.08h13.76c2.17,0,3.93-1.76,3.93-3.93v-7.86l-0.01-0.29c-0.15-2.05-1.86-3.64-3.92-3.64l-13.76,0
	v-5.08c0-2.17-1.76-3.93-3.93-3.93C147.32,473.57,146.32,473.99,145.58,474.72z"/>
<path class="st2" d="M467.44,514.05h-47.19v-47.19h47.19V514.05z"/>
<path d="M448.59,506.18l12.95-12.95c1.54-1.54,1.54-4.02,0-5.56l-12.95-12.95c-1.12-1.13-2.82-1.46-4.29-0.85l-0.29,0.13
	c-1.31,0.67-2.14,2.02-2.14,3.5v5.08h-13.76c-2.17,0-3.93,1.76-3.93,3.93v7.86l0.01,0.29c0.15,2.05,1.86,3.64,3.92,3.64l13.76,0
	v5.08c0,2.17,1.76,3.93,3.93,3.93C446.85,507.33,447.85,506.92,448.59,506.18z"/>
</svg>
