<?xml version="1.0" encoding="utf-8"?>
<!-- Generator: Adobe Illustrator 27.0.0, SVG Export Plug-In . SVG Version: 6.00 Build 0)  -->
<svg version="1.1" xmlns="http://www.w3.org/2000/svg" xmlns:xlink="http://www.w3.org/1999/xlink" x="0px" y="0px"
	 viewBox="0 0 158.74 158.74" style="enable-background:new 0 0 158.74 158.74;" xml:space="preserve">
<style type="text/css">
	.st0{fill:#7f00ff;}
	.st1{fill:#130026;}
</style>
<g id="background">
	<path class="st0" d="M130.39,0H5.67C2.54,0,0,2.54,0,5.67v147.4c0,3.13,2.54,5.67,5.67,5.67h147.4c3.13,0,5.67-2.54,5.67-5.67
		V28.35C158.74,12.69,146.05,0,130.39,0z"/>
</g>
<g id="shit">
	<circle class="st1" cx="12.65" cy="139.01" r="11.34"/>
	<circle class="st1" cx="135.23" cy="63.99" r="4.94"/>
	<circle class="st1" cx="28.51" cy="46.55" r="4.52"/>
	<circle class="st1" cx="127.28" cy="22.2" r="4.25"/>
	<circle class="st1" cx="64.82" cy="140.43" r="7.09"/>
	<circle class="st1" cx="93.46" cy="104.06" r="11.34"/>
	<circle class="st1" cx="145.71" cy="124.22" r="5.67"/>
	<circle class="st1" cx="79.37" cy="82.2" r="4.96"/>
	<circle class="st1" cx="57.08" cy="59.65" r="5.67"/>
	<circle class="st1" cx="30.87" cy="105.33" r="5.28"/>
	<path class="st1" d="M46.15,86.31l-4.72,2.73c-0.81,0.47-1.85,0.19-2.32-0.62l-2.73-4.72c-0.47-0.81-0.19-1.85,0.62-2.32l4.72-2.73
		c0.81-0.47,1.85-0.19,2.32,0.62l2.73,4.72C47.24,84.8,46.96,85.84,46.15,86.31z"/>
	<path class="st1" d="M90.22,130.92L83.58,130c-0.93-0.13-1.58-0.99-1.45-1.92l0.92-6.63c0.13-0.93,0.99-1.58,1.92-1.45l6.63,0.92
		c0.93,0.13,1.58,0.99,1.45,1.92l-0.92,6.63C92.01,130.4,91.15,131.05,90.22,130.92z"/>
	<path class="st1" d="M67.57,109.37l-6.41,6.41c-0.66,0.66-1.74,0.66-2.41,0l-6.41-6.41c-0.66-0.66-0.66-1.74,0-2.41l6.41-6.41
		c0.66-0.66,1.74-0.66,2.41,0l6.41,6.41C68.23,107.63,68.23,108.7,67.57,109.37z"/>
	<path class="st1" d="M113.91,147.52h-10.77c-0.94,0-1.7-0.76-1.7-1.7v-10.77c0-0.94,0.76-1.7,1.7-1.7h10.77
		c0.94,0,1.7,0.76,1.7,1.7v10.77C115.62,146.76,114.85,147.52,113.91,147.52z"/>
	<path class="st1" d="M12.73,117.7h-5.1c-0.94,0-1.7-0.76-1.7-1.7v-5.1c0-0.94,0.76-1.7,1.7-1.7h5.1c0.94,0,1.7,0.76,1.7,1.7v5.1
		C14.43,116.94,13.67,117.7,12.73,117.7z"/>
	<path class="st1" d="M108.56,45.97l0.85,5.03c0.16,0.93-0.47,1.8-1.39,1.96l-5.03,0.85c-0.93,0.16-1.8-0.47-1.96-1.39l-0.85-5.03
		c-0.16-0.93,0.47-1.8,1.39-1.96l5.03-0.85C107.53,44.42,108.4,45.05,108.56,45.97z"/>
	<path class="st1" d="M22.87,26.76l-5.05-0.7c-0.93-0.13-1.58-0.99-1.45-1.92l0.7-5.05c0.13-0.93,0.99-1.58,1.92-1.45l5.05,0.7
		c0.93,0.13,1.58,0.99,1.45,1.92l-0.7,5.05C24.66,26.24,23.8,26.89,22.87,26.76z"/>
	<path class="st1" d="M130.4,122.12l-10.4,2.79c-0.91,0.24-1.84-0.3-2.08-1.2l-2.79-10.4c-0.24-0.91,0.3-1.84,1.2-2.08l10.4-2.79
		c0.91-0.24,1.84,0.3,2.08,1.2l2.79,10.4C131.84,120.95,131.3,121.88,130.4,122.12z"/>
	<path class="st1" d="M135.29,93.81l2.81,10.48c0.34,1.26,1.92,1.69,2.85,0.76l7.67-7.67c0.93-0.93,0.5-2.51-0.76-2.85l-10.48-2.81
		C136.11,91.38,134.95,92.54,135.29,93.81z"/>
	<path class="st1" d="M20.06,82.54l-1.25-11.02c-0.15-1.3-1.65-1.95-2.7-1.18l-8.92,6.59c-1.05,0.78-0.87,2.4,0.33,2.93l10.17,4.43
		C18.89,84.82,20.2,83.85,20.06,82.54z"/>
	<path class="st1" d="M135.97,144l2.12,7.93c0.34,1.26,1.92,1.69,2.85,0.76l5.8-5.8c0.93-0.93,0.5-2.51-0.76-2.85l-7.93-2.12
		C136.79,141.58,135.63,142.73,135.97,144z"/>
	<path class="st1" d="M45.4,136.88l-2.13-7.95c-0.34-1.26-1.92-1.69-2.85-0.76l-5.82,5.82c-0.93,0.93-0.5,2.51,0.76,2.85l7.95,2.13
		C44.59,139.3,45.74,138.15,45.4,136.88z"/>
	<path class="st1" d="M81.31,7.92L76.55,9.2c-1.26,0.34-1.69,1.92-0.76,2.85l3.49,3.49c0.93,0.93,2.51,0.5,2.85-0.76L83.39,10
		C83.73,8.74,82.58,7.58,81.31,7.92z"/>
	<path class="st1" d="M112,82.06l-2.08,4.47c-0.55,1.19,0.39,2.53,1.69,2.41l4.91-0.44c1.3-0.12,1.99-1.6,1.24-2.67l-2.83-4.03
		C114.18,80.72,112.55,80.87,112,82.06z"/>
</g>
<g id="mzw">
	<path class="st0" d="M85.25,106.93c0.59-1.35,1.19-2.69,1.78-4.04c0.29-0.65,0.57-1.3,0.86-1.94c0.26-0.6,0.49-1.29,0.91-1.8
		c-0.4-0.17-0.81-0.33-1.21-0.5c-0.24,1.79-0.12,3.6,0.32,5.35c0.12,0.48,0.85,0.74,1.18,0.31c0.66-0.84,0.97-1.94,1.48-2.88
		c0.26-0.48,0.55-0.95,0.85-1.4c0.23-0.35,0.51-0.85,0.92-1.02c-0.29-0.29-0.58-0.58-0.87-0.87c-0.47,1.37-0.58,2.85-0.3,4.28
		c0.12,0.61,0.33,1.3,0.97,1.55c0.61,0.24,1.34-0.06,1.51-0.72c0.23-0.88-1.14-1.26-1.37-0.38c0.1-0.08,0.2-0.15,0.31-0.23
		c0.05,0.02,0.1,0.05,0.15,0.07c0,0-0.05-0.07-0.05-0.08c-0.02-0.17-0.1-0.35-0.13-0.52c-0.08-0.4-0.12-0.81-0.12-1.22
		c-0.01-0.82,0.14-1.61,0.41-2.38c0.16-0.47-0.38-1.08-0.87-0.87c-1.11,0.46-1.74,1.56-2.32,2.56c-0.3,0.51-0.58,1.04-0.83,1.59
		c-0.23,0.49-0.38,1.1-0.72,1.53c0.39,0.1,0.79,0.21,1.18,0.31c-0.41-1.63-0.49-3.31-0.27-4.98c0.08-0.6-0.84-0.96-1.21-0.5
		c-0.44,0.55-0.72,1.15-1,1.79c-0.31,0.7-0.62,1.4-0.92,2.09c-0.62,1.4-1.23,2.79-1.85,4.19c-0.15,0.35-0.1,0.76,0.25,0.97
		C84.58,107.36,85.1,107.28,85.25,106.93L85.25,106.93z"/>
	<path class="st0" d="M94.39,97.6c0.43-0.52,0.87-1.07,1.46-1.42c0.62-0.37,1.19-0.3,1.86-0.12c-0.1-0.39-0.21-0.79-0.31-1.18
		c-1.89,1.62-2.65,4.07-3.32,6.39c-0.2,0.71,0.68,1.14,1.18,0.69c0.6-0.54,1.16-1.16,1.88-1.54c0.79-0.41,1.74-0.31,2.6-0.25
		c0.38,0.03,0.71-0.35,0.71-0.71c0-0.41-0.33-0.68-0.71-0.71c-1.11-0.08-2.21-0.1-3.23,0.4c-0.87,0.42-1.55,1.17-2.26,1.81
		c0.39,0.23,0.79,0.46,1.18,0.69c0.6-2.09,1.24-4.29,2.95-5.76c0.41-0.35,0.18-1.06-0.31-1.18c-0.97-0.25-1.86-0.3-2.77,0.17
		c-0.78,0.4-1.37,1.08-1.93,1.74c-0.25,0.29-0.29,0.71,0,1C93.64,97.86,94.15,97.9,94.39,97.6L94.39,97.6z"/>
	<path class="st0" d="M88.03,106.01c0.27,1.43,0.56,2.86,0.88,4.28c0.29,1.28,0.48,2.73,1.16,3.87c0.19,0.33,0.64,0.45,0.97,0.25
		c0.83-0.5,0.98-1.79,1.23-2.65c0.29-1.01,0.61-2,1.18-2.89c-0.44-0.12-0.88-0.24-1.32-0.36c0.01,1.02,0.05,2.03,0.1,3.05
		c0.02,0.46,0.43,0.81,0.9,0.68c0.75-0.21,1.08-1.07,1.45-1.68c0.44-0.73,0.87-1.46,1.3-2.19c0.85-1.47,1.68-2.95,2.48-4.45
		c0.43-0.8-0.79-1.52-1.22-0.72c-0.71,1.33-1.43,2.64-2.18,3.94c-0.36,0.62-0.72,1.24-1.09,1.86c-0.2,0.34-0.4,0.67-0.6,1.01
		c-0.1,0.17-0.2,0.34-0.31,0.5c-0.03,0.05-0.2,0.36-0.2,0.36c0.3,0.23,0.6,0.46,0.9,0.68c-0.05-1.01-0.09-2.03-0.1-3.05
		c-0.01-0.72-0.94-0.94-1.32-0.36c-0.51,0.79-0.84,1.66-1.12,2.55c-0.14,0.45-0.26,0.9-0.4,1.35c-0.07,0.23-0.17,1-0.38,1.13
		c0.32,0.08,0.65,0.17,0.97,0.25c-0.31-0.52-0.43-1.11-0.58-1.7c-0.17-0.68-0.33-1.35-0.48-2.03c-0.31-1.36-0.58-2.72-0.84-4.09
		C89.23,104.74,87.86,105.12,88.03,106.01L88.03,106.01z"/>
</g>
</svg>
